<svg width="14" height="14" viewBox="0 0 14 14" fill="none" xmlns="http://www.w3.org/2000/svg">
<path d="M2.7251 3.81543H10.242C10.3943 3.81544 10.5449 3.84736 10.6842 3.90914C10.8234 3.97091 10.9481 4.06118 11.0503 4.17411C11.1525 4.28705 11.2299 4.42014 11.2775 4.56482C11.3251 4.7095 11.3419 4.86255 11.3267 5.0141L10.9997 8.28469C10.9728 8.5537 10.8469 8.80312 10.6464 8.98453C10.446 9.16594 10.1853 9.2664 9.91494 9.26641H4.70926C4.45713 9.26651 4.21277 9.17922 4.01777 9.0194C3.82277 8.85959 3.68919 8.63713 3.63977 8.38989L2.7251 3.81543Z" stroke="white" stroke-width="1.63529" stroke-linejoin="round"/>
<path d="M2.72514 3.81565L2.28361 2.04789C2.25408 1.93002 2.18601 1.82539 2.09021 1.75063C1.99441 1.67586 1.87638 1.63526 1.75486 1.63525H1.08984" stroke="white" stroke-width="1.63529" stroke-linecap="round" stroke-linejoin="round"/>
<path d="M4.36035 11.447H5.45055" stroke="white" stroke-width="1.63529" stroke-linecap="round" stroke-linejoin="round"/>
<path d="M8.7207 11.447H9.8109" stroke="white" stroke-width="1.63529" stroke-linecap="round" stroke-linejoin="round"/>
</svg>
