<svg width="68" height="99" viewBox="0 0 68 99" fill="none" xmlns="http://www.w3.org/2000/svg">
<path d="M67.5938 65.1188C67.5938 65.1613 67.5938 65.1991 67.5938 65.2322C67.5938 83.6488 52.6593 98.5881 34.2332 98.5881C20.8719 98.5881 9.34379 90.7216 4.01912 79.373C2.00642 75.0831 0.291382 70.5616 0.291382 65.2369C0.291382 62.7754 0.291382 65.4023 0.291382 63.0966C0.291382 25.9704 31.1291 0.329834 58.1871 0.329834C58.6596 0.329834 59.132 0.348732 59.5998 0.362906C46.0353 10.1382 40.7485 18.8504 37.616 31.8857C37.6018 31.9282 37.5924 31.9849 37.5782 32.0463C54.3932 33.7189 67.5324 47.8739 67.5938 65.1188Z" fill="#0A4626" fill-opacity="0.3"/>
</svg>
