<svg width="128" height="128" viewBox="0 0 128 128" fill="none" xmlns="http://www.w3.org/2000/svg">
<path d="M80.303 112.116C81.0771 111.812 81.8428 111.704 82.6 111.792C83.3601 111.889 84.0404 112.175 84.6409 112.653C85.2414 113.13 85.6985 113.767 86.012 114.563C86.3256 115.36 86.4253 116.137 86.3112 116.896C86.1971 117.654 85.8948 118.328 85.4043 118.916C84.9138 119.505 84.2815 119.952 83.5073 120.256C82.7332 120.561 81.966 120.665 81.2059 120.569C80.4458 120.473 79.7655 120.186 79.165 119.709C78.5645 119.232 78.1074 118.595 77.7939 117.798C77.4803 117.002 77.3806 116.224 77.4947 115.466C77.6088 114.707 77.9111 114.034 78.4016 113.445C78.895 112.864 79.5288 112.421 80.303 112.116ZM80.7074 113.144C80.1565 113.36 79.7061 113.68 79.3562 114.101C79.0017 114.533 78.7836 115.027 78.7018 115.584C78.623 116.148 78.7037 116.735 78.944 117.346C79.1813 117.949 79.5197 118.426 79.9589 118.777C80.3937 119.139 80.8828 119.355 81.4261 119.425C81.9724 119.502 82.521 119.432 83.0718 119.216C83.6301 118.996 84.088 118.674 84.4453 118.249C84.7953 117.828 85.0134 117.334 85.0997 116.767C85.1786 116.202 85.0993 115.619 84.8619 115.016C84.6216 114.406 84.2804 113.921 83.8382 113.562C83.3989 113.21 82.9061 112.996 82.3598 112.919C81.809 112.852 81.2582 112.927 80.7074 113.144Z" fill="#8FBFAC"/>
<path d="M72.7695 122.684L68.9449 123.143C68.2062 123.232 67.6115 123.11 67.1606 122.777C66.7097 122.445 66.4405 121.913 66.3527 121.182C66.3031 120.769 66.3586 120.392 66.519 120.05C66.6725 119.718 66.899 119.457 67.1986 119.268C66.2775 119.112 65.755 118.518 65.631 117.486C65.5729 117.001 65.6296 116.567 65.8011 116.184C65.9657 115.81 66.2192 115.506 66.5617 115.271C66.9042 115.037 67.2978 114.893 67.7426 114.839L71.7697 114.356L72.7695 122.684ZM68.6707 119.55C68.2815 119.597 67.9886 119.741 67.792 119.982C67.5953 120.223 67.5222 120.554 67.5728 120.975C67.6309 121.46 67.7827 121.784 68.0279 121.948C68.2662 122.121 68.6118 122.18 69.0645 122.126L71.4355 121.841L71.1251 119.256L68.6707 119.55ZM68.1354 115.795C67.6667 115.851 67.3217 115.998 67.1003 116.234C66.8788 116.47 66.7981 116.838 66.8582 117.338C66.9183 117.839 67.0923 118.181 67.3801 118.364C67.66 118.548 68.0581 118.609 68.5744 118.547L71.005 118.255L70.6732 115.491L68.1354 115.795Z" fill="#8FBFAC"/>
<path d="M64.2263 123.336L58.696 123.198L58.7217 122.166L63.0284 122.273L63.0946 119.622L59.8796 119.542L59.9051 118.522L63.1201 118.603L63.1866 115.939L58.8799 115.832L58.9054 114.812L64.4357 114.95L64.2263 123.336Z" fill="#8FBFAC"/>
<path d="M55.6186 122.777L54.4157 122.55L52.6892 115.571L48.5429 121.445L47.34 121.218L48.8918 112.975L50.0593 113.195L48.9559 119.056L52.7363 113.699L53.3259 113.81L54.9113 120.177L56.0147 114.316L57.1704 114.534L55.6186 122.777Z" fill="#8FBFAC"/>
<path d="M47.2712 112.774L46.0658 112.368L47.9162 110.446L48.9625 110.799L47.2712 112.774Z" fill="#8FBFAC"/>
<path d="M34.0108 115.208L30.7437 113.167C30.1127 112.773 29.7259 112.305 29.5832 111.764C29.4406 111.222 29.5642 110.639 29.9541 110.014C30.1745 109.662 30.4543 109.402 30.7934 109.237C31.1215 109.074 31.4616 109.013 31.8135 109.054C31.1934 108.355 31.1588 107.565 31.7098 106.683C31.9683 106.269 32.2845 105.966 32.6584 105.775C33.0213 105.587 33.4096 105.509 33.8235 105.541C34.2373 105.573 34.6342 105.708 35.0142 105.945L38.4543 108.094L34.0108 115.208ZM32.7831 110.197C32.4506 109.989 32.1322 109.918 31.8278 109.982C31.5234 110.047 31.2589 110.259 31.0342 110.618C30.7757 111.032 30.6906 111.38 30.7789 111.661C30.8561 111.945 31.0882 112.208 31.4749 112.45L33.5003 113.715L34.8798 111.506L32.7831 110.197ZM34.7206 106.936C34.3203 106.686 33.9599 106.583 33.6394 106.629C33.3188 106.674 33.0251 106.91 32.7581 107.337C32.4911 107.765 32.4123 108.14 32.5218 108.463C32.6245 108.782 32.8964 109.079 33.3374 109.355L35.4137 110.651L36.8885 108.29L34.7206 106.936Z" fill="#8FBFAC"/>
<path d="M26.9473 110.359L22.726 106.783L23.393 105.996L26.6803 108.78L28.3943 106.756L25.9403 104.678L26.5995 103.899L29.0536 105.978L30.7753 103.945L27.488 101.161L28.1472 100.382L32.3686 103.958L26.9473 110.359Z" fill="#8FBFAC"/>
<path d="M20.5925 104.526L19.7975 103.595L22.8294 97.0753L15.916 99.0512L15.121 98.1206L21.4987 92.6724L22.2704 93.5757L17.7357 97.4494L24.0397 95.6469L24.4294 96.1031L21.6717 102.057L26.2065 98.1834L26.9703 99.0776L20.5925 104.526Z" fill="#8FBFAC"/>
<path d="M10.9337 90.5544L8.52051 85.5765L9.44914 85.1264L11.3284 89.0029L13.7364 87.8355L12.3335 84.9416L13.2081 84.5176L14.611 87.4115L17.9476 85.794L18.4815 86.8954L10.9337 90.5544Z" fill="#8FBFAC"/>
<path d="M8.27555 84.4627L6.51636 79.2179L7.49479 78.8897L8.86474 82.974L11.3791 82.1307L10.3564 79.0816L11.3234 78.7573L12.3461 81.8063L14.8718 80.9592L13.5019 76.8748L14.4689 76.5504L16.2281 81.7953L8.27555 84.4627Z" fill="#8FBFAC"/>
<path d="M5.94828 76.3125L5.6943 75.1029L13.9033 73.3793L14.1573 74.5889L5.94828 76.3125Z" fill="#8FBFAC"/>
<path d="M5.87168 68.8536L6.14967 71.4427L5.12356 71.5529L4.43564 65.1457L5.46174 65.0355L5.73973 67.6246L13.0537 66.8394L13.1856 68.0683L5.87168 68.8536Z" fill="#8FBFAC"/>
<path d="M13.2803 60.4474C13.263 61.2792 13.0674 62.0273 12.6935 62.6916C12.3116 63.3558 11.7847 63.873 11.1128 64.2431C10.441 64.6132 9.67715 64.7893 8.82133 64.7715C7.96552 64.7537 7.20968 64.5459 6.55382 64.1481C5.89795 63.7504 5.39305 63.2118 5.03912 62.5323C4.68519 61.8527 4.51688 61.0971 4.5342 60.2653C4.55152 59.4334 4.75114 58.6854 5.13305 58.0212C5.51495 57.357 6.04183 56.8399 6.71368 56.4698C7.38553 56.0997 8.14936 55.9236 9.00518 55.9414C9.86099 55.9592 10.6168 56.167 11.2727 56.5647C11.9286 56.9625 12.4335 57.5011 12.7874 58.1806C13.1333 58.86 13.2976 59.6155 13.2803 60.4474ZM12.1765 60.4244C12.1889 59.8325 12.0681 59.2939 11.8141 58.8085C11.5523 58.3149 11.1804 57.9231 10.6983 57.633C10.2083 57.3427 9.63531 57.1908 8.97945 57.1771C8.33159 57.1636 7.7608 57.2918 7.26708 57.5616C6.76552 57.8232 6.37778 58.1912 6.10384 58.6656C5.82191 59.1398 5.67478 59.6729 5.66246 60.2647C5.64997 60.8646 5.77062 61.4112 6.0244 61.9046C6.27835 62.39 6.65028 62.7819 7.14017 63.0801C7.63024 63.3704 8.1992 63.5223 8.84706 63.5357C9.50292 63.5494 10.0817 63.4214 10.5834 63.1518C11.0772 62.882 11.465 62.51 11.7469 62.0358C12.021 61.5534 12.1642 61.0162 12.1765 60.4244Z" fill="#8FBFAC"/>
<path d="M12.3207 50.1947C12.2462 50.4812 12.0871 50.696 11.8432 50.8393C11.5994 50.9826 11.3342 51.0171 11.0477 50.9426C10.7612 50.8682 10.5463 50.7091 10.403 50.4652C10.252 50.2194 10.2137 49.9532 10.2881 49.6667C10.3625 49.3802 10.5256 49.1663 10.7772 49.025C11.023 48.874 11.2892 48.8357 11.5757 48.9101C11.8622 48.9845 12.0761 49.1475 12.2174 49.3991C12.3606 49.643 12.3951 49.9082 12.3207 50.1947Z" fill="#8FBFAC"/>
<path d="M20.2861 38.0067C19.8964 38.7418 19.3851 39.3219 18.7523 39.747C18.1124 40.1683 17.4092 40.3931 16.6427 40.4214C15.8761 40.4496 15.1147 40.2633 14.3584 39.8623C13.6021 39.4614 13.0206 38.9358 12.6138 38.2855C12.207 37.6352 11.9984 36.927 11.9881 36.1609C11.9777 35.3948 12.1674 34.6442 12.5571 33.9091C12.9468 33.1741 13.4616 32.5958 14.1015 32.1745C14.7414 31.7531 15.4446 31.5283 16.2111 31.5001C16.9776 31.4718 17.739 31.6582 18.4953 32.0591C19.2516 32.4601 19.8332 32.9857 20.24 33.636C20.6467 34.2863 20.8553 34.9945 20.8657 35.7606C20.869 36.5229 20.6758 37.2716 20.2861 38.0067ZM19.3107 37.4896C19.588 36.9665 19.7224 36.4312 19.714 35.8834C19.7023 35.3248 19.5464 34.8076 19.2464 34.3316C18.9393 33.8519 18.496 33.4584 17.9164 33.1512C17.3439 32.8476 16.7765 32.7053 16.2142 32.7241C15.6485 32.7321 15.1367 32.8863 14.6786 33.1867C14.2134 33.4834 13.8422 33.8933 13.5649 34.4163C13.2839 34.9464 13.1457 35.4889 13.1504 36.0437C13.1588 36.5914 13.3147 37.1087 13.618 37.5955C13.9251 38.0752 14.3649 38.4668 14.9374 38.7703C15.517 39.0776 16.0914 39.2237 16.6608 39.2086C17.2231 39.1898 17.7369 39.0321 18.202 38.7354C18.6638 38.4279 19.0334 38.0126 19.3107 37.4896Z" fill="#8FBFAC"/>
<path d="M19.1329 25.08L21.7389 22.2433C22.2422 21.6954 22.7733 21.4011 23.3321 21.3605C23.8909 21.3198 24.4413 21.5484 24.9833 22.0463C25.2897 22.3278 25.493 22.6504 25.5934 23.0141C25.6932 23.3666 25.6909 23.7121 25.5864 24.0506C26.3869 23.5693 27.1702 23.6805 27.936 24.3841C28.2954 24.7142 28.5346 25.0806 28.6536 25.4832C28.7721 25.8745 28.7776 26.2706 28.67 26.6715C28.5624 27.0724 28.3571 27.4378 28.054 27.7678L25.31 30.7547L19.1329 25.08ZM24.2845 24.7937C24.5497 24.505 24.6785 24.2051 24.671 23.894C24.6635 23.5829 24.5036 23.284 24.1913 22.9971C23.832 22.667 23.5058 22.5194 23.2129 22.5545C22.9195 22.5783 22.6185 22.7581 22.31 23.0939L20.6945 24.8524L22.6121 26.6141L24.2845 24.7937ZM27.1338 27.2972C27.4531 26.9496 27.6201 26.6141 27.6347 26.2908C27.6493 25.9674 27.471 25.6353 27.0999 25.2943C26.7287 24.9533 26.3743 24.807 26.0366 24.8553C25.7044 24.8977 25.3623 25.1103 25.0106 25.4933L23.3544 27.296L25.4046 29.1795L27.1338 27.2972Z" fill="#8FBFAC"/>
<path d="M25.1974 19.0275L29.4874 15.5348L30.139 16.335L26.7982 19.055L28.4726 21.1116L30.9665 19.0811L31.6105 19.8721L29.1166 21.9026L30.7986 23.9684L34.1393 21.2485L34.7833 22.0395L30.4934 25.5322L25.1974 19.0275Z" fill="#8FBFAC"/>
<path d="M32.0982 13.8521L33.1591 13.2416L39.011 17.4195L38.3386 10.2608L39.3994 9.65023L43.5834 16.9202L42.5537 17.5128L39.5789 12.3437L40.1928 18.8716L39.6728 19.1708L34.3266 15.3665L37.3014 20.5356L36.2822 21.1221L32.0982 13.8521Z" fill="#8FBFAC"/>
<path d="M44.9447 16.0186L46.1244 15.5429L45.9693 18.2062L44.9454 18.6191L44.9447 16.0186Z" fill="#8FBFAC"/>
<path d="M53.4326 5.54387L57.2414 4.96824C57.977 4.85706 58.5752 4.96083 59.036 5.27955C59.4968 5.59827 59.7822 6.1215 59.8922 6.84923C59.9544 7.26056 59.9105 7.63937 59.7606 7.98567C59.6173 8.32286 59.3989 8.59051 59.1052 8.78862C60.0306 8.91576 60.571 9.49349 60.7264 10.5218C60.7993 11.0043 60.7559 11.4397 60.5961 11.8279C60.443 12.2071 60.1989 12.5191 59.8638 12.7639C59.5286 13.0087 59.1395 13.1646 58.6965 13.2316L54.6861 13.8377L53.4326 5.54387ZM57.6251 8.55113C58.0127 8.49256 58.3011 8.33974 58.4903 8.09269C58.6795 7.84564 58.7424 7.5125 58.6791 7.09326C58.6061 6.61074 58.4446 6.2913 58.1944 6.13493C57.9509 5.96945 57.6038 5.92078 57.1529 5.98893L54.7917 6.34578L55.1808 8.92054L57.6251 8.55113ZM58.2748 12.288C58.7415 12.2175 59.0819 12.0608 59.296 11.8181C59.5102 11.5754 59.5796 11.2049 59.5043 10.7065C59.429 10.2082 59.2446 9.87194 58.9513 9.69782C58.6659 9.5225 58.2661 9.4737 57.752 9.5514L55.3315 9.91722L55.7475 12.67L58.2748 12.288Z" fill="#8FBFAC"/>
<path d="M61.9518 4.63189L67.4838 4.60115L67.4895 5.63314L63.1816 5.65707L63.1963 8.30903L66.4122 8.29116L66.4179 9.31115L63.202 9.32901L63.2168 11.993L67.5247 11.969L67.5304 12.989L61.9984 13.0198L61.9518 4.63189Z" fill="#8FBFAC"/>
<path d="M70.5727 4.92764L71.7819 5.11728L73.7206 12.0412L77.6857 6.04312L78.8949 6.23275L77.5954 14.5195L76.4218 14.3354L77.3458 8.44343L73.7307 13.9134L73.1379 13.8204L71.3589 7.50457L70.4349 13.3966L69.2731 13.2144L70.5727 4.92764Z" fill="#8FBFAC"/>
<path d="M86.9971 9.25501L92.0681 11.4657L91.6557 12.4117L87.7067 10.6902L86.6373 13.1432L89.5853 14.4284L89.1969 15.3194L86.2489 14.0342L84.767 17.4333L83.645 16.9441L86.9971 9.25501Z" fill="#8FBFAC"/>
<path d="M92.9788 12.1523L97.7269 14.9911L97.1973 15.8769L93.4998 13.6661L92.1388 15.9423L94.8991 17.5927L94.3756 18.4681L91.6154 16.8178L90.2483 19.1042L93.9458 21.315L93.4223 22.1904L88.6743 19.3515L92.9788 12.1523Z" fill="#8FBFAC"/>
<path d="M100.048 16.8283L101.028 17.5817L95.9149 24.231L94.9351 23.4776L100.048 16.8283Z" fill="#8FBFAC"/>
<path d="M104.959 22.4431L103.063 20.6576L103.771 19.9064L108.462 24.325L107.754 25.0761L105.858 23.2906L100.815 28.645L99.9149 27.7975L104.959 22.4431Z" fill="#8FBFAC"/>
<path d="M104.801 33.6471C104.273 33.0041 103.935 32.3087 103.786 31.5609C103.644 30.808 103.708 30.0725 103.978 29.3544C104.247 28.6362 104.713 28.0055 105.374 27.4623C106.036 26.9191 106.745 26.5852 107.502 26.4606C108.259 26.336 108.992 26.4167 109.703 26.7025C110.414 26.9883 111.034 27.4527 111.562 28.0957C112.09 28.7388 112.425 29.4367 112.567 30.1896C112.709 30.9425 112.645 31.678 112.375 32.3961C112.106 33.1143 111.64 33.7449 110.979 34.2881C110.317 34.8314 109.608 35.1653 108.851 35.2898C108.094 35.4144 107.36 35.3338 106.65 35.048C105.945 34.7571 105.329 34.2901 104.801 33.6471ZM105.654 32.9465C106.03 33.4041 106.472 33.7345 106.98 33.938C107.5 34.1425 108.038 34.1982 108.592 34.1049C109.153 34.0065 109.687 33.7492 110.194 33.3329C110.695 32.9217 111.045 32.453 111.245 31.927C111.456 31.402 111.511 30.8703 111.41 30.3318C111.316 29.7882 111.081 29.2876 110.705 28.8301C110.324 28.3664 109.877 28.0297 109.363 27.8201C108.855 27.6167 108.317 27.561 107.751 27.6532C107.19 27.7516 106.659 28.0064 106.158 28.4176C105.651 28.8339 105.295 29.3076 105.09 29.8387C104.89 30.3648 104.837 30.8996 104.932 31.4432C105.038 31.9879 105.278 32.489 105.654 32.9465Z" fill="#8FBFAC"/>
<path d="M112.199 40.8094C112.069 40.5434 112.051 40.2767 112.143 40.0092C112.234 39.7417 112.413 39.5431 112.679 39.4132C112.945 39.2834 113.212 39.2644 113.48 39.3564C113.754 39.4449 113.957 39.6222 114.086 39.8881C114.216 40.1541 114.232 40.4226 114.132 40.6936C114.044 40.9683 113.867 41.1705 113.601 41.3004C113.335 41.4302 113.066 41.4456 112.795 41.3464C112.528 41.2544 112.329 41.0754 112.199 40.8094Z" fill="#8FBFAC"/>
<path d="M114.078 55.2478C113.896 54.436 113.907 53.6628 114.111 52.9283C114.323 52.192 114.711 51.5638 115.275 51.0437C115.838 50.5236 116.538 50.1698 117.373 49.9823C118.208 49.7948 118.992 49.8157 119.724 50.045C120.456 50.2742 121.075 50.6764 121.581 51.2515C122.088 51.8265 122.432 52.52 122.614 53.3318C122.796 54.1436 122.781 54.9176 122.57 55.6539C122.358 56.3902 121.97 57.0184 121.406 57.5385C120.842 58.0586 120.143 58.4124 119.308 58.5999C118.472 58.7874 117.689 58.7665 116.957 58.5372C116.225 58.308 115.606 57.9058 115.099 57.3308C114.601 56.7539 114.261 56.0596 114.078 55.2478ZM115.156 55.006C115.285 55.5836 115.531 56.0777 115.894 56.4882C116.266 56.9048 116.721 57.1962 117.259 57.3626C117.804 57.5271 118.397 57.5376 119.037 57.3939C119.669 57.252 120.193 56.991 120.607 56.6109C121.032 56.2368 121.32 55.7867 121.473 55.2606C121.633 54.7326 121.648 54.1799 121.519 53.6023C121.387 53.0168 121.139 52.5149 120.775 52.0966C120.412 51.6861 119.957 51.3946 119.41 51.2223C118.865 51.0577 118.276 51.0464 117.644 51.1883C117.004 51.332 116.472 51.5948 116.05 51.9766C115.635 52.3567 115.347 52.8107 115.187 53.3386C115.036 53.8726 115.026 54.4284 115.156 55.006Z" fill="#8FBFAC"/>
<path d="M123.364 64.315L123.23 68.1647C123.204 68.9083 122.992 69.4772 122.594 69.8717C122.196 70.2661 121.63 70.4505 120.894 70.4249C120.478 70.4105 120.114 70.2978 119.801 70.0868C119.496 69.8841 119.273 69.6202 119.132 69.2951C118.837 70.1814 118.17 70.6065 117.131 70.5703C116.643 70.5534 116.223 70.4307 115.871 70.2024C115.526 69.9823 115.264 69.685 115.085 69.3105C114.906 68.9361 114.824 68.525 114.84 68.0773L114.981 64.0237L123.364 64.315ZM119.638 67.8838C119.624 68.2755 119.721 68.5871 119.929 68.8185C120.137 69.0498 120.453 69.1729 120.877 69.1876C121.365 69.2046 121.708 69.1044 121.908 68.8872C122.115 68.6783 122.227 68.346 122.243 67.8903L122.326 65.5037L119.723 65.4133L119.638 67.8838ZM115.845 67.836C115.828 68.3077 115.92 68.6711 116.119 68.9262C116.318 69.1813 116.67 69.3176 117.174 69.3351C117.677 69.3526 118.042 69.2332 118.267 68.9768C118.491 68.7285 118.613 68.3445 118.631 67.8248L118.716 65.3783L115.934 65.2816L115.845 67.836Z" fill="#8FBFAC"/>
<path d="M122.695 72.857L121.709 78.3005L120.694 78.1166L121.462 73.8775L118.852 73.4049L118.279 76.5694L117.275 76.3876L117.848 73.2231L115.227 72.7483L114.459 76.9873L113.456 76.8056L114.441 71.3621L122.695 72.857Z" fill="#8FBFAC"/>
<path d="M120.821 81.2768L120.412 82.4306L113.25 83.0645L118.418 88.0639L118.009 89.2177L110.102 86.4182L110.499 85.2983L116.121 87.2888L111.408 82.7305L111.608 82.1649L118.143 81.5763L112.521 79.5858L112.914 78.4772L120.821 81.2768Z" fill="#8FBFAC"/>
<path d="M109.655 87.9886L109.069 89.1173L107.454 86.9937L107.963 86.014L109.655 87.9886Z" fill="#8FBFAC"/>
<path d="M110.023 101.465L107.505 104.38C107.018 104.943 106.497 105.254 105.939 105.311C105.382 105.369 104.825 105.157 104.268 104.676C103.953 104.404 103.74 104.088 103.629 103.728C103.518 103.378 103.51 103.033 103.604 102.691C102.818 103.197 102.032 103.11 101.245 102.43C100.876 102.111 100.626 101.752 100.494 101.353C100.364 100.966 100.347 100.57 100.442 100.166C100.537 99.7618 100.731 99.3903 101.024 99.0513L103.676 95.982L110.023 101.465ZM104.883 101.909C104.626 102.206 104.507 102.509 104.524 102.82C104.541 103.131 104.71 103.425 105.031 103.702C105.4 104.021 105.73 104.158 106.022 104.114C106.315 104.082 106.61 103.893 106.908 103.548L108.469 101.741L106.499 100.038L104.883 101.909ZM101.958 99.4935C101.65 99.8507 101.493 100.191 101.488 100.515C101.484 100.838 101.672 101.165 102.053 101.494C102.435 101.824 102.793 101.959 103.129 101.901C103.46 101.848 103.796 101.625 104.136 101.232L105.736 99.3793L103.629 97.5593L101.958 99.4935Z" fill="#8FBFAC"/>
<path d="M104.146 107.7L99.9646 111.322L99.2889 110.542L102.545 107.722L100.809 105.717L98.3779 107.823L97.7101 107.052L100.141 104.946L98.3967 102.933L95.1405 105.753L94.4726 104.982L98.654 101.36L104.146 107.7Z" fill="#8FBFAC"/>
<path d="M97.4065 113.084L96.3647 113.726L90.388 109.729L91.2786 116.864L90.2369 117.507L85.833 110.368L86.8441 109.744L89.9753 114.82L89.1625 108.314L89.6731 107.999L95.1329 111.638L92.0017 106.562L93.0026 105.945L97.4065 113.084Z" fill="#8FBFAC"/>
<path d="M82.1173 120.482L76.8278 122.102L76.5256 121.115L80.6447 119.854L79.8611 117.295L76.7861 118.237L76.5015 117.307L79.5765 116.365L78.4907 112.82L79.661 112.462L82.1173 120.482Z" fill="#8FBFAC"/>
<path d="M75.6895 122.173L70.2367 123.106L70.0627 122.088L74.3091 121.362L73.8619 118.748L70.692 119.29L70.52 118.285L73.69 117.743L73.2408 115.117L68.9945 115.843L68.8225 114.838L74.2753 113.905L75.6895 122.173Z" fill="#8FBFAC"/>
<path d="M67.2786 123.221L66.0443 123.286L65.6021 114.91L66.8364 114.844L67.2786 123.221Z" fill="#8FBFAC"/>
<path d="M59.8965 122.151L62.4976 122.274L62.4488 123.305L56.012 123L56.0608 121.969L58.6619 122.092L59.0093 114.744L60.2439 114.803L59.8965 122.151Z" fill="#8FBFAC"/>
<path d="M52.7279 113.539C53.5472 113.684 54.2564 113.992 54.8554 114.463C55.4531 114.943 55.8832 115.543 56.1457 116.264C56.4082 116.984 56.4649 117.766 56.3158 118.609C56.1668 119.452 55.8454 120.167 55.3516 120.754C54.8579 121.341 54.2481 121.757 53.5223 122.002C52.7964 122.248 52.0239 122.298 51.2046 122.153C50.3853 122.008 49.6768 121.696 49.0792 121.217C48.4815 120.737 48.0515 120.137 47.789 119.416C47.5265 118.696 47.4697 117.914 47.6188 117.071C47.7678 116.228 48.0893 115.513 48.583 114.926C49.0768 114.339 49.6866 113.923 50.4124 113.678C51.1368 113.44 51.9087 113.394 52.7279 113.539ZM52.5357 114.626C51.9527 114.523 51.4019 114.559 50.8833 114.736C50.3554 114.919 49.9111 115.226 49.5504 115.658C49.1883 116.097 48.9501 116.64 48.8359 117.286C48.7231 117.924 48.762 118.508 48.9528 119.037C49.1342 119.573 49.4383 120.013 49.865 120.356C50.2903 120.708 50.7944 120.935 51.3774 121.038C51.9682 121.143 52.5269 121.107 53.0534 120.932C53.5721 120.756 54.0164 120.449 54.3863 120.01C54.7484 119.571 54.9859 119.032 55.0987 118.394C55.213 117.748 55.1754 117.156 54.9861 116.619C54.7953 116.09 54.4873 115.649 54.062 115.298C53.6274 114.953 53.1187 114.729 52.5357 114.626Z" fill="#8FBFAC"/>
<path d="M49.1793 112.722C49.3325 112.768 49.4478 112.857 49.5252 112.989C49.5926 113.126 49.6033 113.271 49.5573 113.425C49.5112 113.578 49.4223 113.693 49.2905 113.771C49.151 113.846 49.0047 113.86 48.8514 113.814C48.6982 113.768 48.584 113.675 48.509 113.536C48.4339 113.396 48.4194 113.25 48.4654 113.097C48.5114 112.944 48.6042 112.829 48.7436 112.754C48.8808 112.687 49.026 112.676 49.1793 112.722Z" fill="#8FBFAC"/>
</svg>
