<svg width="43" height="43" viewBox="0 0 43 43" fill="none" xmlns="http://www.w3.org/2000/svg">
<path d="M28.9454 3.59961C34.9065 3.59961 38.8981 7.78467 38.8981 14.0095V28.3776C38.8981 34.5849 34.9065 38.7682 28.9454 38.7682H13.6998C7.73871 38.7682 3.72949 34.5849 3.72949 28.3776V14.0095C3.72949 7.78467 7.73871 3.59961 13.6998 3.59961H28.9454ZM26.6067 15.8576C26.0088 15.258 25.0417 15.258 24.4262 15.8576L21.3138 18.9859L18.1838 15.8576C17.5683 15.258 16.6012 15.258 16.0033 15.8576C15.4055 16.4555 15.4055 17.4402 16.0033 18.0363L19.1333 21.1681L16.0033 24.2805C15.4055 24.896 15.4055 25.8631 16.0033 26.4592C16.3023 26.7581 16.7067 26.9181 17.0936 26.9181C17.498 26.9181 17.8849 26.7581 18.1838 26.4592L21.3138 23.3485L24.4438 26.4592C24.7427 26.7775 25.1296 26.9181 25.5164 26.9181C25.9209 26.9181 26.3077 26.7581 26.6067 26.4592C27.2045 25.8631 27.2045 24.896 26.6067 24.2981L23.4767 21.1681L26.6067 18.0363C27.2045 17.4402 27.2045 16.4555 26.6067 15.8576Z" fill="#0C6937"/>
</svg>
