<svg width="1440" height="75" viewBox="0 0 1440 75" fill="none" xmlns="http://www.w3.org/2000/svg">
<path d="M1461.28 24.8276C1459.62 24.1389 1457.82 23.8552 1456.03 23.9998C1454.24 24.1445 1452.51 24.7133 1450.98 25.6594C1444.93 27.483 1440.07 29.7225 1433.77 28.8587C1428.04 30.3304 1422.22 35.4493 1416.36 30.2664C1407.63 23.3878 1399.12 25.6594 1390.45 24.6996C1378.9 20.5724 1367.28 22.78 1355.74 24.6996C1349.34 24.6996 1345.79 26.6832 1339.99 27.483C1337.56 30.0105 1336.12 32.218 1333.6 28.3468C1326.4 29.5306 1318.08 35.4493 1311.2 28.3468C1308 28.9227 1305.38 20.5404 1302.15 24.8915C1299.2 28.0909 1296.07 24.8915 1293.06 24.5716C1288.33 30.4904 1287.21 24.5716 1282.89 21.7562C1279.69 14.3337 1276.49 23.4518 1273.13 20.8604C1263.08 23.5798 1253 19.3247 1242.93 20.8604C1236.69 23.2919 1229.94 10.8145 1223.73 20.6684C1216.69 16.5093 1210.77 25.3394 1204.02 27.7709C1200.82 34.1696 1198.07 21.2123 1194.97 30.9703C1185.37 37.8808 1176.19 29.9785 1166.17 33.6897C1160.96 34.3296 1155.94 39.2886 1151.01 31.9621C1147.62 39.7685 1144.93 23.6118 1141.7 26.2992C1136 15.1975 1129.99 18.077 1123.78 22.78C1116.87 21.5002 1110.12 23.6758 1103.4 24.5716C1096.65 26.0113 1089.9 22.2361 1082.93 26.4912C1077.07 25.6594 1072.82 23.8678 1067.73 28.2188C1060.37 27.7709 1053.05 32.218 1045.91 28.6028C1039.86 33.1138 1032.83 15.9974 1026.72 28.2188C1018.72 33.0498 1010.72 23.2279 1002.69 28.2188C994.658 17.3731 986.692 42.8078 978.629 28.2188C970.279 31.1942 961.929 22.684 953.578 28.2188C946.54 17.693 942.061 21.8202 935.406 23.0039C930.207 20.8287 924.39 20.6352 919.058 22.46C915.858 21.5642 913.683 26.1393 910.835 19.0048C907.444 8.63891 904.885 12.6061 901.461 16.9572C897.686 7.7431 895.223 13.7578 891.159 13.5339C883.769 16.9892 873.883 23.5798 866.78 13.5339C863.421 11.2624 861.086 11.8063 857.534 8.54293C853.343 5.34359 850.304 9.1828 846.433 10.2386C840.898 11.9022 835.651 18.9088 829.636 15.7734C826.149 23.0359 823.078 12.926 819.686 14.2058C816.167 6.11143 811.048 7.80708 807.497 14.2058C805.417 13.8538 803.882 16.8292 801.482 17.1172C797.259 16.3493 792.62 21.6282 788.365 17.4691C783.726 11.8702 779.311 20.9244 774.992 16.2533C769.713 11.1984 763.794 7.07124 757.683 9.85466C751.572 14.9416 745.27 3.23203 739.255 8.99084C732.024 10.0786 724.794 12.83 717.5 13.8218C709.98 13.5905 702.461 14.2672 695.104 15.8374C688.705 19.2287 682.307 14.8776 675.908 14.1098C671.995 11.9854 667.893 10.2289 663.655 8.86286C657.256 12.0622 651.305 8.223 645.578 11.3264C641.771 15.9334 638.06 15.6135 633.933 17.4051C630.957 17.4051 627.534 17.5971 624.335 17.4051C615.921 15.1656 605.139 19.6766 597.748 19.2287C592.341 24.4436 587.031 20.7324 580.92 21.0843C576.121 19.6126 573.785 26.3312 569.85 19.7406C568.826 20.0285 568.026 15.3895 566.875 17.789C564.475 13.022 560.476 16.2213 558.173 17.3411C554.301 16.4453 555.549 18.4289 552.446 20.1565C547.583 25.5314 542.08 19.1327 536.161 23.0039C529.474 26.2033 523.076 20.8924 516.709 23.1959C510.31 23.8358 504.104 29.2426 497.513 26.2033C490.412 30.4834 481.968 31.9554 473.838 30.3304C467.887 31.4502 460.337 29.2106 454.642 30.1384C452.914 29.4026 451.859 33.3378 450.163 32.09C446.876 33.9421 443.23 35.0663 439.471 35.3865C435.712 35.7066 431.928 35.2153 428.375 33.9457C422.882 32.3299 417.04 32.3299 411.547 33.9457C408.097 32.0793 404.225 31.1315 400.303 31.1931C396.381 31.2547 392.541 32.3238 389.152 34.2976C382.753 43.0318 378.146 45.0474 371.203 39.5125C362.981 40.2803 352.615 38.1048 344.489 39.5125C341.066 40.2484 341.29 39.7045 338.442 36.0892C336.714 38.7767 333.387 32.218 331.532 34.3936C326.893 32.154 322.733 37.8489 318.446 28.9867C316.079 26.3312 314.031 30.0105 311.44 25.1795C307.601 26.3952 303.249 31.8661 299.314 24.8276C292.724 19.9966 287.125 26.3312 280.694 26.7152C270.808 30.5544 261.21 26.1073 251.484 25.3075C246.397 18.5888 245.309 20.4125 240.862 21.1483C237.663 14.4297 237.663 20.7004 234.656 19.5806C229.921 20.3805 225.058 9.75868 220.355 13.5019C211.269 9.27878 199.399 1.69635 189.609 12.1582C184.682 11.5823 175.372 11.8702 171.245 11.8702C169.933 9.95064 169.293 8.06303 168.045 8.09502C166.766 1.12047 164.558 3.48798 162.991 5.27961C156.88 -1.79093 150.833 4.12785 144.274 3.13605C139.507 4.25582 136.244 8.83087 131.733 1.72834C125.334 -0.415212 118.712 1.72834 112.345 1.31243C110.329 -0.959099 108.122 0.0966817 106.202 1.63236C104.027 0.608576 103.387 3.48798 100.891 5.08765C97.692 8.06303 93.053 4.44778 89.5977 5.08765C82.6872 2.8801 75.7766 0.704556 68.866 5.08765C61.1315 6.22863 53.5319 8.14729 46.1827 10.8145C38.3444 11.8702 31.1779 15.4215 22.6676 14.0138C18.2525 14.9096 11.342 11.1664 7.08685 13.8218C4.23944 20.8284 3.69556 19.3567 1.26406 18.2369C-0.335606 17.2131 -1.93527 20.9244 -3.66291 19.8686C-11.8852 18.3649 -18.8918 26.2673 -27.7859 23.0679C-27.9459 23.9317 -37 49.3665 -37 48.4067C-33.8007 52.7898 -32.137 50.7102 -29.2896 51.606C-27.9709 51.0275 -26.5356 50.764 -25.0974 50.8361C-23.6592 50.9083 -22.2575 51.3143 -21.0033 52.0219C-16.4603 47.7988 -11.0214 55.4772 -6.54232 52.0219C-1.64733 52.0219 2.19187 58.8685 7.05486 57.2048C13.0056 58.6125 19.0204 54.9653 24.3313 54.9973C31.4338 52.1819 37.6085 44.6634 45.2869 39.3525C46.8866 41.2721 50.4059 36.3772 51.9096 39.3525C56.9325 38.5847 63.6191 31.7061 68.3221 40.1524C72.5773 40.1524 76.2885 38.4567 81.1195 42.2639C84.6708 35.1294 82.6552 37.9768 87.2942 37.4329C90.9734 40.0884 95.5485 29.4026 99.3877 35.4174C105.562 34.3296 107.546 31.2902 112.665 42.3599C120.407 43.3517 134.708 41.5601 142.707 42.9678C150.001 44.1835 158.383 33.3698 165.774 42.9678C171.085 41.912 176.876 48.5346 181.771 46.711C187.758 47.2051 193.582 48.9142 198.887 51.734C208.037 50.5502 218.915 46.0392 228.257 52.1499C234.368 53.3016 240.606 51.638 246.717 52.1499C253.116 46.807 257.211 58.7725 263.674 57.7807C269.592 58.5806 276.823 60.9801 282.582 57.5568C284.469 61.076 285.781 60.7561 287.765 59.5404C290.696 58.9157 293.727 58.9157 296.659 59.5404C298.386 56.1171 300.722 58.5486 302.386 59.2844C304.657 59.2844 305.585 57.9407 307.633 54.3894C310.48 54.7094 316.687 58.3886 319.534 54.0695C324.333 53.5896 329.132 56.565 333.515 55.8291C339.914 60.4042 344.457 63.1876 352.327 63.2516C358.118 56.533 364.069 61.428 369.892 63.2516C374.897 64.5564 380.194 64.174 384.96 62.1638C386.496 61.8119 387.744 58.2926 389.376 59.5723C392.575 61.5239 396.382 59.5723 399.869 57.7487C405.404 56.341 411.003 61.108 416.57 57.7487C420.345 59.7963 427.832 64.4993 431.255 57.4288C433.654 47.8308 434.454 51.0301 436.886 51.0301C442.293 47.2869 452.115 52.4058 458.385 48.8226C461.585 50.9341 461.169 47.8628 464.784 49.8784C469.743 46.679 473.518 64.0834 478.701 58.1007C484.62 56.7569 490.571 63.3796 496.713 59.6683C503.752 60.4682 510.854 62.8677 517.893 59.6683C519.716 60.5961 522.116 62.3238 523.876 59.4444C529.315 62.6437 530.594 64.8193 535.297 66.7069C539.392 73.1055 544.191 68.8824 548.415 66.7069C554.301 59.1884 559.58 69.2663 565.627 68.6265C571.674 64.1474 577.72 68.4345 583.767 68.6265C587.849 67.4917 592.163 67.4917 596.245 68.6265C599.444 65.5871 602.643 75.537 605.843 70.6101C614.545 72.6576 623.919 69.8102 631.853 66.5469C636.62 66.195 640.427 60.9801 645.354 59.7643C647.946 61.6199 649.546 52.4698 651.977 56.8209C655.432 54.0695 659.016 58.2286 662.791 56.0211C668.39 63.3476 674.34 53.3976 679.875 56.0211C687.97 58.9965 693.728 53.0777 700.927 45.7512C705.31 45.4313 711.677 48.7266 716.476 44.8874C722.586 48.8226 727.513 44.8874 733.336 48.2787C735.224 46.551 737.079 57.6208 738.935 48.9825C740.759 49.3985 742.614 54.4534 744.47 51.9259C754.58 48.3747 765.266 64.7233 775.983 57.7487C782.83 55.9251 789.74 59.9883 796.619 57.5568C803.466 53.4616 810.312 55.2852 816.967 59.1244C822.694 63.9874 828.388 67.8266 833.795 57.3008C839.362 48.1827 842.114 52.6618 848.256 54.1015C859.098 53.0458 870.016 53.0458 880.858 54.1015C887.096 56.341 893.367 54.9973 899.606 54.1015C905.844 53.2057 909.908 51.574 915.602 55.9251C927.088 58.8045 937.998 52.4378 948.172 59.4764C952.555 62.6757 957.29 71.2819 961.737 64.8513C968.935 64.8513 975.814 70.0342 983.812 71.9858C992.962 75.1851 999.809 66.291 1008.54 68.7864C1020.16 71.7618 1031.51 60.7561 1043.45 66.6749C1050.71 63.4755 1060.88 69.8742 1067.76 66.4189C1073.27 65.843 1075.73 63.2196 1082.03 59.3804C1087.53 54.7413 1093.65 67.0588 1099.08 59.3804C1104.97 60.7881 1110.22 60.7881 1116.1 63.3796C1120.1 70.93 1124.46 59.7003 1128.49 63.1876C1135.3 63.6995 1142.08 57.8767 1148.9 63.1876C1155.68 63.1876 1162.46 62.6437 1169.28 63.1876C1176.6 53.5896 1184.09 67.0908 1191.13 65.3951C1197.53 72.6896 1201.53 71.9538 1208.63 72.3377C1216.72 77.4246 1222.03 70.2261 1229.59 68.0826C1236.26 68.2406 1242.93 67.6829 1249.49 66.4189C1256.64 66.5267 1263.71 64.7856 1269.99 61.364C1277.35 60.3402 1282.79 51.478 1291.24 57.7487C1302.05 61.6839 1312.9 63.2516 1323.71 57.7487C1330.11 61.428 1334.36 56.7249 1340.6 55.9251C1349.05 51.3501 1356.89 59.4124 1365.21 57.3328C1373.59 58.5486 1382.55 63.0596 1391.02 59.5084C1397.11 59.6206 1402.97 61.8235 1407.63 65.7471C1414.51 70.77 1423.31 62.0038 1430.73 66.8028C1436.97 70.0022 1441.29 63.6035 1447.04 63.2196C1452.48 63.4435 1465.54 64.1474 1468.54 55.9251C1468.54 49.2705 1477.63 16.3813 1477.63 21.4683C1474.49 29.5626 1465.54 24.2517 1461.28 24.8276Z" fill="white"/>
</svg>
