<svg width="30" height="30" viewBox="0 0 30 30" fill="none" xmlns="http://www.w3.org/2000/svg">
<circle cx="15" cy="15" r="15" fill="#BDC6CF"/>
<path d="M15 12.3966C13.5664 12.3966 12.3965 13.5665 12.3965 15.0001C12.3965 16.4337 13.5664 17.6036 15 17.6036C16.4336 17.6036 17.6035 16.4337 17.6035 15.0001C17.6035 13.5665 16.4336 12.3966 15 12.3966ZM22.8086 15.0001C22.8086 13.922 22.8183 12.8536 22.7578 11.7774C22.6972 10.5274 22.4121 9.41806 21.498 8.504C20.582 7.58798 19.4746 7.30478 18.2246 7.24423C17.1465 7.18369 16.0781 7.19345 15.0019 7.19345C13.9238 7.19345 12.8554 7.18369 11.7793 7.24423C10.5293 7.30478 9.41989 7.58994 8.50583 8.504C7.58981 9.42001 7.30661 10.5274 7.24606 11.7774C7.18552 12.8556 7.19528 13.9239 7.19528 15.0001C7.19528 16.0763 7.18552 17.1466 7.24606 18.2227C7.30661 19.4727 7.59177 20.5821 8.50583 21.4962C9.42185 22.4122 10.5293 22.6954 11.7793 22.756C12.8574 22.8165 13.9258 22.8067 15.0019 22.8067C16.08 22.8067 17.1484 22.8165 18.2246 22.756C19.4746 22.6954 20.584 22.4102 21.498 21.4962C22.414 20.5802 22.6972 19.4727 22.7578 18.2227C22.8203 17.1466 22.8086 16.0782 22.8086 15.0001ZM15 19.006C12.7832 19.006 10.9941 17.2169 10.9941 15.0001C10.9941 12.7833 12.7832 10.9942 15 10.9942C17.2168 10.9942 19.0058 12.7833 19.0058 15.0001C19.0058 17.2169 17.2168 19.006 15 19.006ZM19.1699 11.7657C18.6523 11.7657 18.2343 11.3477 18.2343 10.8302C18.2343 10.3126 18.6523 9.89462 19.1699 9.89462C19.6875 9.89462 20.1054 10.3126 20.1054 10.8302C20.1056 10.9531 20.0815 11.0748 20.0345 11.1884C19.9876 11.3019 19.9187 11.4051 19.8318 11.492C19.7449 11.579 19.6417 11.6479 19.5281 11.6948C19.4145 11.7418 19.2928 11.7659 19.1699 11.7657Z" fill="#EEF1E5"/>
</svg>
