<svg width="708" height="147" viewBox="0 0 708 147" fill="none" xmlns="http://www.w3.org/2000/svg">
<g clip-path="url(#clip0_356_351)">
<path d="M326.244 79.2307C331.295 71.9152 335.319 65.6082 340.397 60.1238C341.874 58.5316 343.236 56.6386 345.642 56.3556C347.146 56.1698 348.853 56.214 349.048 58.1778C349.243 60.1415 347.624 59.2393 346.598 59.4427C344.112 59.9469 342.75 62.0964 341.352 63.8656C336.192 70.6476 331.953 78.0839 328.747 85.98C327.597 88.7753 326.854 93.207 322.661 92.2163C318.698 91.2786 320.158 87.0592 320.193 84.2551C320.321 79.5585 320.729 74.8738 321.414 70.2257C321.759 67.7047 321.184 67.0589 318.716 67.687C312.462 69.2704 306.19 70.8272 299.874 72.1895C297.433 72.7114 297.495 74.3655 297.362 76.1258C296.819 83.6533 293.972 90.831 289.206 96.6834C287.501 98.9119 285.403 100.81 283.014 102.283C276.566 106.139 271.515 104.052 269.914 96.6834C269.117 92.4811 269.172 88.1618 270.073 83.9809C270.498 81.5925 270.958 79.213 270.073 76.7008C268.233 77.4262 267.95 79.2042 266.942 80.3718C265.173 82.3975 263.58 84.7947 260.467 84.0074C257.353 83.2201 257.017 80.2745 256.521 77.6827C255.902 74.4451 256.521 71.0218 255.159 67.0678C250.612 72.3752 247.87 78.0011 244.606 83.2732C243.138 85.6439 241.891 88.1826 239.714 90.0137C236.91 92.3843 234.549 91.7828 233.292 88.3507C232.036 84.9185 232.081 81.4244 232.045 77.9038C231.992 72.0922 232.045 66.2805 231.461 60.3804C227.773 64.9094 226.287 70.3849 224.491 75.6924C223.084 79.8587 221.934 84.1135 220.714 88.3418C220.121 90.4029 219.245 92.287 222.085 93.8881C223.774 94.8346 223.067 97.2672 221.2 97.5237C218.219 97.9218 217.901 99.7971 217.432 102.026C216.733 105.326 215.911 108.599 215.035 111.863C214.442 114.039 213.575 116.339 210.842 116.233C207.684 116.1 207.366 113.366 207.251 111.049C207.038 106.803 207.127 102.539 207.118 98.2756C207.118 96.8337 207.454 95.3388 205.844 94.3835C200.139 90.969 197.564 85.5377 196.114 79.3457C194.389 79.1599 194.256 80.6637 193.646 81.5217C189.789 86.9176 185.685 92.0924 180.483 96.2676C177.157 98.9213 173.539 100.231 169.461 98.1695C165.384 96.1084 163.951 92.4993 163.827 88.3153C163.305 74.8078 177.272 65.3871 189.479 71.128C192.372 72.4902 193.646 72.101 194.681 69.2438C195.282 67.5808 196.246 65.8205 198.476 66.3336C200.705 66.8466 200.492 68.8812 200.519 70.6503C200.625 77.3377 201.324 83.8128 207.596 89.1556C208.347 84.2462 208.922 79.9914 209.657 75.7632C210.718 69.695 211.868 63.6445 213.062 57.6028C213.469 55.5152 214.274 53.2595 216.945 53.808C219.396 54.321 218.281 56.6209 218.423 58.2309C219.166 66.9439 214.389 74.7901 214.469 83.4147C214.469 85.9888 214.009 88.563 213.699 91.8094C216.105 90.0402 216.043 87.988 216.556 86.3161C219.29 77.4704 222.049 68.6246 225.579 60.0973C225.926 59.1305 226.342 58.1904 226.826 57.2844C228.233 54.9225 229.365 51.8088 232.886 52.5342C236.229 53.233 235.911 56.3998 236.22 58.9827C237.105 66.1478 236.91 73.3483 237.017 80.5399C237.017 82.0879 236.548 83.7509 237.777 85.3785C239.732 84.6001 240.431 82.7248 241.316 81.221C244.4 75.8855 247.766 70.7182 251.4 65.7409C252.824 63.8744 254.328 61.6276 257.096 62.5476C259.52 63.3525 259.75 65.8117 259.962 68.032C260.219 71.1103 260.378 74.224 260.652 77.2581C260.741 78.24 260.573 79.5491 261.793 79.9118C263.014 80.2745 263.651 79.1688 264.27 78.3815C265.615 76.6123 267.234 74.9847 268.092 73.0121C270.745 66.8997 276.053 62.3972 278.079 55.8602C278.76 53.6222 280.423 51.9681 283.059 52.4369C285.465 52.8615 285.783 54.896 285.712 56.8598C285.624 58.5493 286.394 59.2481 287.897 59.5135C289.874 59.831 291.717 60.7117 293.206 62.0499C294.695 63.3882 295.766 65.1273 296.292 67.0589C297.035 69.403 298.38 69.8807 300.582 69.3411C307.137 67.7224 313.851 66.6874 320.282 64.6263C321.609 64.1929 322.679 63.8125 323.21 62.3795C323.634 61.2473 324.43 60.2035 325.863 60.6104C327.544 61.0792 327.438 62.6626 327.349 63.9098C327.084 67.7135 326.624 71.5083 326.27 75.3032C326.182 76.1435 326.244 77.0016 326.244 79.2307ZM275.761 90.969C275.761 91.7032 275.761 92.4374 275.761 93.1628C275.858 95.0381 275.513 97.3114 277.53 98.2491C279.547 99.1867 281.245 97.7095 282.678 96.5507C288.811 91.6695 292.909 84.6829 294.178 76.9485C294.664 74.2948 293.806 73.2244 290.87 73.7463C287.548 74.2756 284.193 74.5712 280.83 74.6309C279.007 74.6928 278.176 75.4093 277.831 77.0723C276.849 81.6544 275.726 86.2011 275.761 90.9248V90.969ZM168.966 87.4838C168.886 89.9694 169.4 92.2251 171.788 93.4989C174.035 94.6931 175.76 93.1716 177.387 92.004C181.872 88.7753 184.959 84.2728 188.223 79.9207C189.992 77.5146 189.179 76.4531 186.711 75.4978C178.44 72.1541 169.293 78.2842 168.966 87.4838ZM282.97 71.8887C285.748 71.6056 288.525 71.2872 291.303 71.0041C293.851 70.783 294.16 69.4119 293.276 67.3774C292.762 66.1591 291.972 65.0771 290.968 64.2172C289.964 63.3574 288.773 62.7433 287.49 62.4237C284.775 61.6895 283.678 64.759 281.298 65.2809C280.352 65.4844 279.591 68.9342 279.662 70.8714C279.706 72.5698 281.785 71.6056 282.97 71.8887Z" fill="#555555"/>
<path d="M30.0336 30.6853C23.8416 32.2245 22.5058 33.9848 24.5846 38.1688C22.5678 38.8234 21.5063 37.7088 20.7809 36.2316C20.4786 35.6253 20.4016 34.9313 20.5637 34.2735C20.7257 33.6156 21.1162 33.0368 21.6655 32.6402C23.4346 31.1364 25.2038 29.2346 27.2825 28.4562C31.0332 27.0674 31.7054 24.2279 32.0946 20.9373C32.7935 15.2583 33.4569 9.57048 35.111 4.05073C35.801 1.64468 37.0748 -0.00947523 39.8081 0.653957C42.2053 1.22893 43.5234 2.63541 41.7542 5.12107C38.269 10.2074 38.4371 16.249 37.4021 21.928C36.9421 24.4402 38.9324 23.4318 40.0558 23.1753C46.1858 21.6073 52.4904 20.8256 58.8177 20.8488C61.0198 20.8955 63.2134 21.1382 65.3724 21.5742C75.4654 23.591 79.0656 31.3045 73.9262 40.3537C69.0699 48.881 62.2322 55.7719 54.8017 62.0878C48.0789 67.8375 41.1527 73.2953 33.8992 78.3463C33.021 78.8502 32.2912 79.5767 31.7834 80.4526C31.2755 81.3285 31.0076 82.3228 31.0066 83.3353C30.2614 100.81 30.752 118.315 32.475 135.72C32.5928 138.222 33.1311 140.686 34.0673 143.009C34.6068 144.159 34.8368 145.397 33.4127 146.016C31.9885 146.636 31.1393 145.574 30.6086 144.504C29.2097 141.588 28.247 138.482 27.7514 135.286C25.0003 120.151 25.0976 104.875 25.5576 89.5804C25.5576 88.0943 26.5749 86.0421 24.8146 85.1575C23.4612 84.4941 22.1078 85.9448 20.8871 86.6524C15.8008 89.5981 10.8737 92.8445 5.38045 95.0028C3.8059 95.6309 2.01021 96.772 0.550663 95.0028C-0.333913 93.9767 0.462205 92.6587 1.3114 91.8449C2.6648 90.5357 3.62899 87.6166 6.02619 89.1027C7.64496 90.1111 8.4057 89.4831 9.4495 88.8462C14.3324 85.9359 19.1887 82.8841 24.0627 79.8677C24.6378 79.543 25.1176 79.0732 25.4544 78.5051C25.7913 77.937 25.9732 77.2905 25.9822 76.6302C26.8668 61.5393 28.4856 46.5015 30.352 31.4637C30.3786 31.2249 30.1486 30.9507 30.0336 30.6853ZM31.7231 74.3568C37.0837 71.5173 41.0819 68.0763 45.0891 64.7061C54.4037 56.8688 64.0986 49.3145 70.158 38.4077C74.342 30.8622 71.9271 25.9263 63.3379 24.6348C55.1578 23.4732 46.821 24.1747 38.9501 26.687C37.2694 27.2001 36.1637 27.9254 35.9249 29.9069C34.2176 44.4582 32.36 59.0006 31.7231 74.3568Z" fill="#555555"/>
<path d="M114.113 81.1945C114.441 77.9215 114.741 73.9763 115.263 70.0488C115.555 67.917 115.166 67.0147 112.795 67.6074C106.4 69.1908 99.9866 70.7653 93.538 72.1806C91.0258 72.7291 91.3885 74.5248 91.2646 76.232C90.6739 84.1993 87.4927 91.7546 82.2066 97.7449C80.4091 99.889 78.2056 101.657 75.7226 102.946C70.4152 105.688 65.7358 103.672 64.1524 97.8156C62.2859 90.8983 63.9047 84.1224 65.2404 77.3642C65.7535 74.7901 66.6204 72.3399 66.125 69.5888C66.0188 68.939 66.0423 68.2746 66.1941 67.6339C66.346 66.9933 66.6231 66.389 67.0096 65.8559C69.4598 62.9722 70.4683 59.4516 71.9013 56.1256C72.7859 53.9761 74.1658 52.1627 76.7576 52.4015C79.3494 52.6403 79.7917 54.8341 79.7917 56.9482C79.7917 58.6466 80.5082 59.2835 82.0297 59.602C86.3552 60.4335 89.0532 63.2287 90.327 67.2535C91.0523 69.5269 92.3084 69.8542 94.281 69.3942C100.995 67.8374 107.815 66.7405 114.396 64.591C115.529 64.2194 116.59 64.0071 117.05 62.6449C117.51 61.2827 118.377 60.115 119.969 60.6988C121.561 61.2827 121.499 62.8041 121.349 64.1045C120.96 67.4305 120.394 70.7476 119.907 74.0648C119.739 75.1617 119.111 76.6035 120.394 77.1696C121.862 77.8154 122.287 76.1878 122.897 75.2766C126.389 69.8414 130.299 64.6865 134.591 59.8585C135.883 58.4609 137.139 56.9217 139.085 56.444C140.704 56.0548 142.694 56.0283 143.065 58.0363C143.481 60.3538 141.482 59.1154 140.412 59.4162C138.2 60.0354 136.873 61.9195 135.493 63.6445C130.218 70.5167 125.892 78.0681 122.632 86.095C121.446 88.9257 120.686 93.2247 116.493 92.2074C112.751 91.3229 114.556 87.2627 114.14 84.547C114.059 83.4312 114.051 82.3114 114.113 81.1945ZM69.3979 91.5086C69.5306 92.8001 69.5837 94.1623 69.8048 95.4007C70.2737 98.1606 71.574 99.1337 74.4135 97.8245C80.6055 94.9673 88.3898 82.6805 88.0448 75.9489C87.9652 74.4894 87.8502 73.6136 85.8864 73.5694C72.6178 73.2598 71.5386 74.1267 69.8579 87.5634C69.6987 88.8637 69.5571 90.1729 69.3979 91.5086ZM77.138 71.8887C80.0217 71.588 82.7904 71.3137 85.5591 71.0041C86.9921 70.8361 88.2836 70.4026 87.6644 68.545C87.1852 67.0044 86.3148 65.6143 85.1381 64.5105C83.9613 63.4066 82.5186 62.6267 80.9505 62.2468C78.4383 61.4861 78.8983 64.6087 76.8637 64.6529C73.3254 64.7325 74.0685 68.1912 73.75 70.1638C73.2989 72.7821 75.9084 71.4641 77.138 71.8887Z" fill="#555555"/>
<path d="M600.515 66.2893C594.978 71.5437 590.059 76.3381 585.008 80.9733C579.789 85.7588 574.181 90.0313 567.388 92.402C556.224 96.2941 549.9 91.659 550.059 79.9118C550.059 77.1254 551.333 74.454 550.713 71.4022C548.873 72.0214 548.59 73.7109 547.918 75.0112C542.23 85.9446 535.95 96.5241 529.342 106.909C527.449 109.899 525.406 112.791 522.495 114.87C519.585 116.949 516.56 116.94 514.269 114.083C511.376 110.579 509.688 106.237 509.457 101.699C508.896 84.081 510.38 66.4576 513.88 49.1816C514.517 45.9264 513.818 45.0683 510.536 45.4045C503.079 46.1652 495.595 46.6783 488.121 47.1736C486.626 47.2709 484.919 47.8636 483.371 46.3864C484.096 44.6172 485.706 44.9622 487.006 44.8561C495.206 44.1926 503.406 43.4496 511.624 43.025C514.278 42.8923 515.445 42.1404 516.091 39.4867C517.179 35.0638 518.745 30.7913 520.222 26.5011C520.691 25.1654 521.505 23.3697 523.256 23.9712C525.008 24.5727 524.335 26.4746 524.052 27.8457C523.424 30.8621 522.61 33.8431 521.956 36.8506C520.797 42.1581 520.824 42.2466 526.14 42.0608C537.595 41.6627 549.05 41.1231 560.506 40.7958C566.18 40.593 571.862 40.8356 577.498 41.5212C577.012 43.6 575.729 42.9896 574.907 42.9542C557.834 42.2731 540.824 43.6265 523.805 44.5553C521.92 44.6614 520.461 44.8118 520.054 47.209C517.073 65.1925 514.375 83.1936 515.534 101.513C515.671 103.859 516.069 106.182 516.719 108.439C517.772 111.978 519.506 112.376 522.027 109.695C525.77 105.549 529.072 101.025 531.881 96.1968C537.984 86.1657 542.894 75.1793 550.315 66.2628C554.835 60.8403 559.161 54.4272 565.831 50.7739C568.546 49.2789 571.377 48.3413 574.137 50.2254C576.667 51.9946 577.118 54.6483 575.685 57.302C572.094 63.8479 567.441 69.1465 559.223 69.4915C557.985 69.5446 556.844 69.5623 556.375 70.9599C554.853 75.4535 553.562 80.0091 554.729 84.7681C555.711 88.7929 558.692 89.9783 562.514 89.4121C567.777 88.6426 572.155 85.8738 576.242 82.7424C584.973 76.0285 593.642 69.1996 600.444 60.3892C600.982 59.5926 601.769 58.9977 602.682 58.6981C603.595 58.3986 604.582 58.4116 605.486 58.7351C607.255 59.3985 606.813 61.4949 606.698 63.0518C606.371 67.3597 605.911 71.6499 605.893 76.0816C610.608 69.9957 614.659 63.556 619.861 58.0097C621.453 56.3025 622.957 54.3476 625.593 54.2679C626.973 54.2679 628.441 54.551 628.521 56.2494C628.609 58.3458 627.123 57.2667 626.07 57.3286C624.142 57.4613 623.054 59.0977 621.966 60.3981C616.817 66.6241 612.598 73.5635 609.44 80.9998C608.476 83.2909 607.459 85.5819 606.318 87.7934C605.433 89.4121 604.195 90.8098 602.16 90.394C600.126 89.9783 599.675 88.1649 599.551 86.3073C599.162 80.5575 600.011 74.8697 600.506 69.173C600.568 68.4212 600.515 67.7312 600.515 66.2893ZM572.306 56.0902C572.562 53.1888 571.227 53.1534 569.652 53.7991C564.415 55.8956 561.514 60.2654 559.037 64.9713C558.277 66.4043 558.772 67.0943 560.532 66.9262C564.168 66.5547 572.138 58.9827 572.306 56.0902Z" fill="#555555"/>
<path d="M406.74 76.4266C402.901 81.9463 399.212 87.0415 394.718 91.4025C392.233 93.835 389.676 96.0022 386.138 96.8426C380.751 98.1164 376.956 96.1172 375.523 90.8186C373.444 83.0344 375.948 76.5416 381.839 71.4287C387.394 66.5989 393.834 65.9974 400.318 69.3234C403.219 70.8095 404.475 70.1372 405.625 67.4393C406.342 65.6701 407.2 63.6356 409.73 64.4052C411.968 65.0863 411.552 67.1474 411.543 68.8723C411.543 78.5407 414.117 86.6257 424.414 90.0579C429.226 91.659 434.056 90.7921 438.779 89.9871C452.472 87.6607 464.75 81.7694 476.356 74.3567C477.241 73.7994 478.063 73.2156 478.93 72.6494C480.443 71.6676 481.964 71.296 483.096 73.1271C484.149 74.8166 482.99 75.8958 481.778 76.7981C476.495 80.529 470.915 83.8218 465.095 86.6434C457.314 90.5762 449.083 93.5466 440.584 95.4892C433.507 97.1522 425.962 97.4706 419.071 94.0916C412.958 91.084 409.517 85.7323 407.66 79.2926C407.43 78.4965 407.147 77.7092 406.74 76.4266ZM379.866 86.6611C380.141 88.1472 380.441 90.3498 382.644 91.5794C384.714 92.7293 386.35 91.4821 387.872 90.4117C392.861 86.8734 396.364 82.0083 399.787 77.0635C401.114 75.1351 399.849 74.5513 398.443 73.8525C390.163 69.7303 379.902 76.4089 379.866 86.6611Z" fill="#555555"/>
<path d="M675.589 70.6503C671.166 76.7185 667.212 82.3444 661.958 86.8823C656.703 91.4202 652.652 92.2605 648.459 89.5891C644.461 87.0415 642.789 81.5306 644.275 75.8251C647.451 63.6798 658.57 58.1336 669.928 63.3349C672.635 64.5733 673.555 63.8125 674.501 61.5657C675.235 59.7966 675.996 57.647 678.42 58.1689C680.843 58.6908 680.516 61.0084 680.507 62.9014C680.439 65.691 680.737 68.4775 681.392 71.1899C683.506 79.2307 688.716 83.7066 696.996 84.3258C699.486 84.4541 701.981 84.4541 704.471 84.3258C706.24 84.2728 707.823 84.3258 707.965 86.5904C708.088 88.678 706.823 89.3591 704.948 89.5183C692.564 90.5886 680.472 88.1472 676.385 72.3752C676.159 71.7831 675.893 71.2069 675.589 70.6503ZM648.84 79.8853C648.84 82.2206 649.547 84.2109 651.635 85.4846C653.722 86.7584 655.332 85.3962 656.836 84.3258C661.816 80.7875 665.363 75.9489 668.76 70.9864C670.061 69.0846 668.698 68.4831 667.309 67.7666C659.048 63.5649 648.84 70.2522 648.84 79.8853Z" fill="#555555"/>
<path d="M626.628 79.8676C626.64 74.4298 627.269 69.011 628.503 63.7152C629.025 61.6188 628.999 58.0009 632.042 58.6377C634.89 59.2393 633.696 62.5653 633.457 64.7767C633.192 67.227 632.484 69.6419 632.174 72.0921C632.05 73.1448 631.449 74.7459 632.705 75.2678C634.173 75.9135 634.563 74.224 635.155 73.3306C638.865 67.499 643.077 62.0026 647.743 56.904C649.185 55.3825 650.724 54.0291 653.05 54.2502C654.324 54.3652 655.509 54.8341 655.492 56.2671C655.474 57.7001 654.298 57.3374 653.245 57.3728C650.591 57.4701 649.291 59.7169 647.937 61.4949C642.831 67.9668 638.668 75.1293 635.571 82.769C634.679 84.9323 633.583 87.0057 632.298 88.961C631.962 89.547 631.436 90.0007 630.807 90.2468C630.178 90.4929 629.484 90.5168 628.839 90.3144C628.194 90.1301 627.628 89.7363 627.231 89.195C626.834 88.6537 626.628 87.9957 626.646 87.3245C626.575 84.8566 626.628 82.3621 626.628 79.8676Z" fill="#555555"/>
<path d="M399.504 61.3534C399.23 62.866 398.151 62.7864 397.169 62.353C393.252 60.6972 389.527 58.621 386.059 56.1609C385.652 55.9681 385.334 55.6274 385.169 55.2083C385.005 54.7892 385.007 54.3232 385.174 53.9053C385.294 53.5521 385.543 53.2574 385.871 53.0802C386.199 52.903 386.582 52.8565 386.943 52.9499C391.614 54.5245 395.364 57.6028 399.177 60.575C399.398 60.6988 399.407 61.0792 399.504 61.3534Z" fill="#555555"/>
</g>
<defs>
<clipPath id="clip0_356_351">
<rect width="707.82" height="145.663" fill="white" transform="translate(0.180176 0.503418)"/>
</clipPath>
</defs>
</svg>
