<svg width="26" height="27" viewBox="0 0 26 27" fill="none" xmlns="http://www.w3.org/2000/svg">
<path d="M13.7501 9.21429C13.7501 8.80007 13.4143 8.46429 13.0001 8.46429C12.5858 8.46429 12.2501 8.80007 12.2501 9.21429H13.7501ZM12.2501 17.7857C12.2501 18.1999 12.5858 18.5357 13.0001 18.5357C13.4143 18.5357 13.7501 18.1999 13.7501 17.7857H12.2501ZM17.2857 14.25C17.6999 14.25 18.0357 13.9142 18.0357 13.5C18.0357 13.0858 17.6999 12.75 17.2857 12.75V14.25ZM8.71429 12.75C8.30007 12.75 7.96429 13.0858 7.96429 13.5C7.96429 13.9142 8.30007 14.25 8.71429 14.25V12.75ZM24.25 13.5C24.25 19.7132 19.2132 24.75 13 24.75V26.25C20.0416 26.25 25.75 20.5416 25.75 13.5H24.25ZM13 24.75C6.7868 24.75 1.75 19.7132 1.75 13.5H0.25C0.25 20.5416 5.95837 26.25 13 26.25V24.75ZM1.75 13.5C1.75 7.2868 6.7868 2.25 13 2.25V0.75C5.95837 0.75 0.25 6.45837 0.25 13.5H1.75ZM13 2.25C19.2132 2.25 24.25 7.2868 24.25 13.5H25.75C25.75 6.45837 20.0416 0.75 13 0.75V2.25ZM12.2501 9.21429V17.7857H13.7501V9.21429H12.2501ZM17.2857 12.75H8.71429V14.25H17.2857V12.75Z" fill="#0C6937"/>
</svg>
