<svg width="30" height="31" viewBox="0 0 30 31" fill="none" xmlns="http://www.w3.org/2000/svg">
<path d="M21.99 0.5C27.09 0.5 30 3.38 30 8.495V22.505C30 27.59 27.105 30.5 22.005 30.5H7.995C2.88 30.5 0 27.59 0 22.505V8.495C0 3.38 2.88 0.5 7.995 0.5H21.99ZM14.985 8.765C14.295 8.765 13.74 9.32 13.74 10.01V14.24H9.495C9.165 14.24 8.85 14.375 8.61 14.6C8.385 14.84 8.25 15.1535 8.25 15.485C8.25 16.175 8.805 16.73 9.495 16.745H13.74V20.99C13.74 21.68 14.295 22.235 14.985 22.235C15.675 22.235 16.23 21.68 16.23 20.99V16.745H20.49C21.18 16.73 21.735 16.175 21.735 15.485C21.735 14.795 21.18 14.24 20.49 14.24H16.23V10.01C16.23 9.32 15.675 8.765 14.985 8.765Z" fill="#0A4626"/>
</svg>
