<svg width="26" height="26" viewBox="0 0 26 26" fill="none" xmlns="http://www.w3.org/2000/svg">
<path d="M13.7501 8.71429C13.7501 8.30007 13.4143 7.96429 13.0001 7.96429C12.5858 7.96429 12.2501 8.30007 12.2501 8.71429H13.7501ZM12.2501 17.2857C12.2501 17.6999 12.5858 18.0357 13.0001 18.0357C13.4143 18.0357 13.7501 17.6999 13.7501 17.2857H12.2501ZM17.2857 13.75C17.6999 13.75 18.0357 13.4142 18.0357 13C18.0357 12.5858 17.6999 12.25 17.2857 12.25V13.75ZM8.71429 12.25C8.30007 12.25 7.96429 12.5858 7.96429 13C7.96429 13.4142 8.30007 13.75 8.71429 13.75V12.25ZM24.25 13C24.25 19.2132 19.2132 24.25 13 24.25V25.75C20.0416 25.75 25.75 20.0416 25.75 13H24.25ZM13 24.25C6.7868 24.25 1.75 19.2132 1.75 13H0.25C0.25 20.0416 5.95837 25.75 13 25.75V24.25ZM1.75 13C1.75 6.7868 6.7868 1.75 13 1.75V0.25C5.95837 0.25 0.25 5.95837 0.25 13H1.75ZM13 1.75C19.2132 1.75 24.25 6.7868 24.25 13H25.75C25.75 5.95837 20.0416 0.25 13 0.25V1.75ZM12.2501 8.71429V17.2857H13.7501V8.71429H12.2501ZM17.2857 12.25H8.71429V13.75H17.2857V12.25Z" fill="white"/>
</svg>
