<svg width="24" height="12" viewBox="0 0 24 12" fill="none" xmlns="http://www.w3.org/2000/svg">
<path fill-rule="evenodd" clip-rule="evenodd" d="M23.815 6.19996C24.0617 5.89998 24.0617 5.4136 23.815 5.11362L19.7957 0.225088C19.549 -0.0748958 19.1491 -0.0748959 18.9025 0.225088C18.6558 0.525073 18.6558 1.01144 18.9025 1.31143L21.8437 4.88863L0.63158 4.88863C0.282768 4.88863 9.39793e-07 5.23255 8.74227e-07 5.65679C8.46307e-07 6.08103 0.282768 6.42495 0.63158 6.42495L21.8437 6.42495L18.9025 10.0022C18.6558 10.3021 18.6558 10.7885 18.9025 11.0885C19.1491 11.3885 19.549 11.3885 19.7957 11.0885L23.815 6.19996Z" fill="#232D22"/>
</svg>
