<svg width="14" height="51" viewBox="0 0 14 51" fill="none" xmlns="http://www.w3.org/2000/svg">
<path fill-rule="evenodd" clip-rule="evenodd" d="M8.59388 2.27753C8.59388 1.55174 8.00551 0.963379 7.27973 0.963379C6.55394 0.963379 5.96558 1.55174 5.96558 2.27753L5.96557 18.6167C2.96637 19.2256 0.708985 21.8772 0.708984 25.0561C0.708984 28.2349 2.96637 30.8866 5.96557 31.4954L5.96557 48.7108C5.96557 49.4366 6.55394 50.025 7.27972 50.025C8.00551 50.025 8.59387 49.4366 8.59387 48.7108L8.59387 31.4954C11.5931 30.8866 13.8505 28.2349 13.8505 25.0561C13.8505 21.8772 11.5931 19.2255 8.59388 18.6167L8.59388 2.27753Z" fill="#8FBFAC"/>
</svg>
